<svg width="469" height="474" viewBox="0 0 469 474" fill="none" xmlns="http://www.w3.org/2000/svg">
<path d="M177.788 472.343C169.876 470.467 163.252 466.079 153.984 456.571C138.504 440.687 125.936 434.075 104.1 430.315C81.4443 426.415 71.3803 417.995 65.3283 397.883C57.8563 373.059 50.0483 361.171 32.8923 348.499C13.4283 334.123 8.43635 321.443 13.1843 298.471C17.5843 277.195 15.9003 262.067 6.96435 242.615C-3.69965 219.411 -2.38365 207.011 12.7603 187.995C26.6443 170.567 31.0003 159.043 33.0803 134.271C35.1763 109.267 42.1323 99.011 62.6203 90.711C79.7163 83.783 94.3443 71.755 102.452 57.959C111.828 42.003 113.196 40.175 119.008 35.839C128.384 28.843 135.964 26.907 150.4 27.811C175.48 29.383 188.92 26.371 205.76 15.407C227.716 1.11499 241.032 1.11499 262.988 15.407C279.832 26.371 293.272 29.383 318.348 27.811C342.064 26.323 351.932 32.547 366.388 58.119C373.552 70.787 388.192 83.119 404.22 89.979C427.044 99.747 433.676 108.663 435.36 131.831C437.184 156.923 442.328 170.951 455.956 187.995C471.132 206.975 472.456 219.387 461.784 242.615C452.852 262.067 451.164 277.195 455.564 298.471C460.316 321.443 455.32 334.123 435.86 348.499C418.704 361.171 410.896 373.059 403.424 397.883C397.372 417.995 387.304 426.415 364.652 430.315C342.764 434.083 330.188 440.715 314.764 456.623C297.668 474.251 285.412 477.163 261.512 469.259C241.964 462.799 226.912 462.771 207.444 469.163C193.804 473.639 186.536 474.419 177.788 472.343Z" fill="#FFF3F3" fill-opacity="0.21"/>
<path d="M177.788 467.659C169.876 465.779 163.252 461.391 153.984 451.883C138.504 436.003 125.936 429.387 104.1 425.631C81.4443 421.731 71.3803 413.307 65.3283 393.199C57.8563 368.371 50.0483 356.483 32.8923 343.811C13.4283 329.435 8.43635 316.759 13.1843 293.783C17.5843 272.507 15.9003 257.379 6.96435 237.927C-3.69965 214.723 -2.38365 202.323 12.7603 183.311C26.6443 165.879 31.0003 154.359 33.0803 129.583C35.1763 104.579 42.1323 94.323 62.6203 86.023C79.7163 79.095 94.3443 67.067 102.452 53.271C111.828 37.315 113.196 35.487 119.008 31.151C128.384 24.155 135.964 22.219 150.4 23.123C175.48 24.695 188.92 21.683 205.76 10.719C227.716 -3.573 241.032 -3.573 262.988 10.719C279.832 21.683 293.272 24.695 318.348 23.123C342.064 21.635 351.932 27.859 366.388 53.431C373.552 66.099 388.192 78.431 404.22 85.291C427.044 95.059 433.676 103.975 435.36 127.143C437.184 152.235 442.328 166.263 455.956 183.311C471.132 202.287 472.456 214.699 461.784 237.927C452.852 257.379 451.164 272.507 455.564 293.783C460.316 316.759 455.32 329.435 435.86 343.811C418.704 356.483 410.896 368.371 403.424 393.199C397.372 413.307 387.304 421.731 364.652 425.631C342.764 429.395 330.188 436.031 314.764 451.935C297.668 469.567 285.412 472.475 261.512 464.575C241.964 458.111 226.912 458.083 207.444 464.475C193.804 468.951 186.536 469.731 177.788 467.659Z" fill="black"/>
<path d="M291.589 245.847C273.637 254.523 254.329 258.919 234.209 258.919C212.286 258.935 190.703 253.492 171.409 243.08C152.116 232.669 135.718 217.617 123.697 199.283C121.801 196.391 117.885 195.699 115.085 197.747L91.9811 214.763C89.3611 216.691 88.7571 220.367 90.5931 223.079C106.398 246.658 127.771 265.979 152.82 279.333C177.869 292.687 205.823 299.663 234.209 299.643C260.505 299.643 285.777 293.891 309.301 282.535L291.589 245.847ZM221.501 101.059H246.501V73.439C246.501 66.539 240.897 60.939 234.001 60.939C227.101 60.939 221.501 66.539 221.501 73.439V101.059Z" fill="#4285F4"/>
<path d="M201.468 154.975L115.532 331.843C113.674 335.657 112.667 339.829 112.58 344.071L112.068 367.235C111.948 373.231 118.876 376.603 123.516 372.807L141.408 358.107C144.692 355.418 147.353 352.048 149.208 348.231L233.908 173.859L201.496 155.003L201.468 154.975ZM355.444 344.043C355.356 339.795 354.332 335.639 352.492 331.815L266.56 154.943L234.148 173.859L318.848 348.167C320.711 351.981 323.371 355.35 326.648 358.047L344.54 372.747C349.18 376.543 356.136 373.167 355.988 367.175L355.476 344.011L355.444 344.043Z" fill="#4285F4"/>
<rect width="48" height="42" transform="translate(210 113)" fill="white"/>
<path d="M234.5 96C213.808 96 197 112.84 197 133.5C197 154.164 213.84 171 234.5 171C255.164 171 272 154.164 272 133.5C272 112.84 255.164 96 234.5 96ZM234.5 154.132C223.148 154.132 213.868 144.888 213.868 133.5C213.868 122.116 223.116 112.868 234.5 112.868C245.888 112.868 255.136 122.116 255.136 133.5C255.136 144.888 245.888 154.132 234.5 154.132Z" fill="#073042"/>
<rect width="26.4325" height="105.073" transform="translate(300 191.798) rotate(-26.51)" fill="white"/>
<path d="M313.844 205.077C312.368 202.061 313.632 198.449 316.644 196.973C319.656 195.497 323.272 196.761 324.748 199.773C326.224 202.785 324.96 206.401 321.948 207.877C318.936 209.353 315.32 208.089 313.844 205.077ZM343.152 265.317C341.676 262.305 342.94 258.689 345.952 257.213C348.964 255.737 352.58 257.005 354.056 260.017C355.532 263.029 354.268 266.641 351.256 268.117C348.244 269.593 344.628 268.329 343.152 265.317ZM345.712 187.153C326.436 173.389 301.284 169.833 278 178.841L341.644 309.713C363.092 296.973 375.804 274.957 376.888 251.309L401.044 253.029C401.375 253.053 401.707 253.01 402.021 252.905C402.336 252.799 402.626 252.632 402.875 252.413C403.124 252.194 403.328 251.928 403.473 251.63C403.619 251.332 403.704 251.008 403.724 250.677C403.748 250.347 403.706 250.015 403.601 249.7C403.495 249.386 403.329 249.096 403.11 248.846C402.892 248.597 402.626 248.394 402.328 248.248C402.031 248.102 401.707 248.017 401.376 247.997L376.916 246.249C376.676 235.949 374.208 225.437 369.296 215.317C364.388 205.225 357.64 196.793 349.688 190.225L363.424 169.893C363.785 169.342 363.916 168.671 363.787 168.024C363.658 167.378 363.281 166.808 362.737 166.437C362.192 166.066 361.523 165.923 360.875 166.04C360.226 166.157 359.649 166.523 359.268 167.061L345.712 187.125" fill="#3DDC84"/>
</svg>
