<?xml version="1.0" encoding="utf-8"?>
<svg xmlns="http://www.w3.org/2000/svg" id="a" viewBox="0 0 44.639 50">
  <defs>
    <style>.b{fill:#00df79;}.c{fill:#003144;}.d{fill:#00c165;}.e{fill:#001719;}.f{fill:#cff0fe;}.g{fill:#1f86fb;}.h{fill:#1d72b6;}.i{fill:#94f1c6;}</style>
  </defs>
  <path class="i" d="M21.615,.046c.005-.015,.006-.031,.004-.046h.829c-.004,.016-.003,.032,.003,.047-.279,.134-.557,.135-.836,0Z"/>
  <path class="g" d="M43.75,12.223c.59,.825,.886,1.745,.886,2.758,0,6.572,.008,13.144-.004,19.717-.004,2-.889,3.536-2.609,4.555-5.669,3.356-11.345,6.7-17.019,10.045-.909,.536-1.896,.758-2.948,.691,.336-.116,.311-.391,.311-.67-.004-2.875-.002-5.75-.002-8.626,0-.155-.013-.311,.028-.463,.048-.135,.159-.172,.287-.178,.478-.024,.909-.192,1.314-.432,2.656-1.578,5.322-3.141,7.981-4.714,.772-.457,1.558-.894,2.317-1.371,.912-.574,1.449-1.404,1.451-2.506,.009-4.014,0-8.028,.008-12.042,.001-.508-.109-.973-.345-1.415-.045-.084-.093-.166-.097-.265,.008-.133,.113-.187,.208-.244,2.159-1.294,4.318-2.586,6.482-3.872,.482-.286,.961-.576,1.442-.863,.095-.056,.186-.131,.309-.103Z"/>
  <path class="c" d="M22.456,40.169c-.003,.846-.008,1.692-.008,2.537-.001,2.279,0,4.558-.001,6.837,0,.415-.005,.415-.391,.445-.839-.059-1.61-.322-2.343-.737-5.949-3.365-11.901-6.725-17.854-10.082-1.093-.616-1.724-1.529-1.858-2.781,.002-.06,.007-.12,.007-.181,0-7.051,0-14.103,0-21.154,0-.06-.005-.12-.007-.181,.057-.71,.182-1.403,.527-2.04,.094-.04,.167,.013,.241,.055,1.761,.989,3.525,1.973,5.286,2.962,.941,.528,1.881,1.058,2.827,1.578,.098,.054,.203,.099,.266,.2,.007,.028,.007,.055,.001,.083-.189,.471-.265,.956-.264,1.466,.009,4.178,.006,8.356,.004,12.534,0,.785,.324,1.38,1.008,1.77,1.829,1.043,3.667,2.071,5.499,3.109,1.817,1.029,3.636,2.055,5.456,3.08,.379,.214,.785,.356,1.225,.38,.121,.007,.24,.025,.349,.086l.03,.032Z"/>
  <path class="b" d="M9.126,17.631c-1.339-.746-2.679-1.492-4.018-2.239-1.527-.852-3.054-1.705-4.581-2.558,.383-.898,1.028-1.559,1.857-2.05,1.305-.773,2.612-1.541,3.918-2.312C10.658,5.902,15.014,3.332,19.37,.762c.694-.409,1.44-.654,2.244-.715h.836c.723,.058,1.408,.25,2.039,.606,5.776,3.259,11.55,6.52,17.323,9.783,.783,.443,1.448,1.021,1.937,1.787-1.762,1.051-3.526,2.1-5.287,3.152-1.043,.623-2.082,1.252-3.123,1.879-.022,.019-.046,.022-.071,.009-.126-.082-.202-.212-.298-.322-.442-.509-1.037-.798-1.607-1.119-1.414-.796-2.825-1.599-4.24-2.395-1.798-1.012-3.588-2.038-5.391-3.043-1.114-.621-2.219-.574-3.318,.076-3.374,1.996-6.751,3.988-10.129,5.977-.379,.223-.688,.516-.932,.882-.071,.106-.118,.232-.228,.31Z"/>
  <path class="h" d="M35.295,17.249c.015,.003,.03,.004,.045,.005,.153,.363,.368,.7,.44,1.097,.02,.111,.039,.219,.039,.331,0,4.17,.009,8.34-.009,12.51-.003,.799-.379,1.471-.972,2.008-.67,.609-1.502,.968-2.265,1.429-1.782,1.078-3.582,2.126-5.376,3.185-1.067,.63-2.132,1.264-3.204,1.887-.42,.244-.865,.425-1.365,.421-.057,0-.115,.029-.173,.045l-.023,.003c-.067-.089-.067-.194-.068-.297-.009-1.441-.085-2.88-.053-4.321,.003-.12-.007-.242,.033-.359,.033-.083,.107-.113,.184-.123,.514-.064,.939-.336,1.369-.591,2.096-1.24,4.194-2.477,6.293-3.712,.731-.43,1.102-1.059,1.1-1.919-.007-2.548-.008-5.096,.002-7.644,.002-.443-.076-.856-.263-1.252,0-.116,.095-.156,.17-.209,1.25-.877,2.564-1.654,3.877-2.431,.067-.04,.132-.083,.217-.065Z"/>
  <path class="d" d="M35.295,17.249c-1.426,.861-2.865,1.704-4.231,2.661-.045-.004-.086-.022-.112-.058-.373-.529-.94-.799-1.48-1.104-1.976-1.115-3.954-2.228-5.926-3.35-.03-.017-.062-.032-.091-.05-.887-.554-1.734-.484-2.622,.058-2.07,1.263-4.169,2.476-6.26,3.704-.424,.249-.803,.537-1.042,.979-.021,.038-.053,.068-.092,.089-.105,.024-.182-.039-.261-.088-1.156-.717-2.324-1.413-3.514-2.072-.184-.102-.407-.152-.533-.347-.003-.013-.005-.027-.005-.041,.206-.525,.574-.916,1.047-1.199,1.506-.902,3.019-1.792,4.531-2.684,1.942-1.146,3.877-2.303,5.83-3.428,1.12-.645,2.251-.57,3.362,.073,.894,.517,1.798,1.018,2.696,1.528,.988,.561,1.974,1.125,2.963,1.684,.997,.564,2.001,1.114,2.993,1.687,.67,.387,1.377,.712,2,1.178,.291,.218,.545,.474,.747,.779Z"/>
  <path class="e" d="M9.131,17.671c1.182,.629,2.348,1.286,3.48,2,.268,.169,.542,.33,.814,.495,.063,.07,.037,.148,.013,.22-.093,.276-.092,.559-.092,.845,.002,2.71,.006,5.421-.003,8.131-.002,.626,.254,1.061,.798,1.368,2.074,1.17,4.152,2.335,6.221,3.514,.292,.167,.589,.326,.879,.496,.287,.167,.596,.271,.923,.323,.084,.013,.175,.007,.236,.085,.003,.266,.007,.533,.01,.799,.013,1.305,.025,2.61,.036,3.916,0,.103-.009,.206-.014,.308-.938-.008-1.706-.472-2.483-.919-.872-.502-1.752-.993-2.627-1.489-1.123-.636-2.245-1.275-3.369-1.91-.877-.496-1.755-.987-2.633-1.481-.532-.3-1.075-.583-1.593-.906-.588-.367-.907-.92-.908-1.615-.007-4.344-.005-8.687-.001-13.031,0-.407,.088-.798,.311-1.149Z"/>
  <path class="f" d="M22.4,35.149c-.414,0-.795-.116-1.153-.319-2.406-1.362-4.812-2.724-7.22-4.083-.513-.289-.758-.717-.757-1.307,.005-2.702,.005-5.403-.001-8.105,0-.399,.023-.789,.156-1.167,.214-.475,.581-.798,1.022-1.058,2.186-1.285,4.371-2.572,6.551-3.867,.784-.466,1.556-.477,2.346-.029,2.304,1.305,4.61,2.607,6.916,3.908,.34,.192,.591,.47,.803,.79,.242,.376,.309,.793,.309,1.233-.004,2.583-.002,5.165-.001,7.748,0,.842-.368,1.477-1.086,1.902-2.268,1.344-4.541,2.682-6.811,4.023-.332,.196-.688,.312-1.074,.333Z"/>
</svg>