<?xml version="1.0" encoding="UTF-8"?>
<svg id="Layer_1" data-name="Layer 1" xmlns="http://www.w3.org/2000/svg" version="1.1" viewBox="0 0 512 512">
  <defs>
    <style>
      .cls-1 {
        fill: #dd2c00;
      }

      .cls-1, .cls-2, .cls-3 {
        stroke-width: 0px;
      }

      .cls-2 {
        fill: #ffc400;
      }

      .cls-3 {
        fill: #ff9100;
      }
    </style>
  </defs>
  <path class="cls-3" d="M179.88,497.29c21.41,8.64,44.67,13.75,69.07,14.59,33.04,1.14,64.44-5.68,92.52-18.64-33.68-13.22-64.18-32.58-90.17-56.64-16.86,27.01-41.83,48.34-71.38,60.69h-.04Z"/>
  <path class="cls-2" d="M251.25,436.6c-59.41-54.93-95.43-134.46-92.4-221.67.11-2.84.27-5.65.42-8.49-10.65-2.77-21.75-4.43-33.19-4.81-16.37-.57-32.2,1.44-47.17,5.68-15.87,27.77-25.42,59.63-26.63,93.81-3.07,88.12,50.24,165.11,127.52,196.21,29.59-12.35,54.52-33.64,71.38-60.69l.08-.04Z"/>
  <path class="cls-3" d="M251.25,436.6c13.83-22.09,22.2-48,23.15-75.92,2.58-73.42-46.79-136.62-115.14-154.23-.19,2.84-.34,5.65-.42,8.49-3.03,87.21,33,166.74,92.4,221.67Z"/>
  <path class="cls-1" d="M266.79,0c-38.91,31.18-69.63,72.29-88.24,119.64-10.65,27.13-17.35,56.26-19.28,86.8,68.35,17.62,117.71,80.81,115.14,154.23-.99,27.92-9.36,53.8-23.15,75.92,26.03,24.06,56.53,43.38,90.17,56.64,67.59-31.26,115.51-98.47,118.32-177.95,1.78-51.52-18-97.44-45.96-136.16C384.23,138.13,266.82.04,266.82.04L266.79,0Z"/>
</svg>