<svg width="800" height="800" viewBox="0 0 800 800" fill="none" xmlns="http://www.w3.org/2000/svg">
<g clip-path="url(#clip0_504_627)">
<path d="M99.9993 100H699.999C708.84 100 717.318 103.512 723.57 109.763C729.821 116.014 733.333 124.493 733.333 133.333V666.667C733.333 675.507 729.821 683.986 723.57 690.237C717.318 696.488 708.84 700 699.999 700H99.9993C91.1588 700 82.6803 696.488 76.4291 690.237C70.1779 683.986 66.666 675.507 66.666 666.667V133.333C66.666 124.493 70.1779 116.014 76.4291 109.763C82.6803 103.512 91.1588 100 99.9993 100ZM233.333 516.667V383.333L299.999 450L366.666 383.333V516.667H433.333V283.333H366.666L299.999 350L233.333 283.333H166.666V516.667H233.333ZM599.999 416.667V283.333H533.333V416.667H466.666L566.666 516.667L666.666 416.667H599.999Z" fill="black"/>
</g>
<defs>
<clipPath id="clip0_504_627">
<rect width="800" height="800" fill="white"/>
</clipPath>
</defs>
</svg>
